<svg width="20" height="18" viewBox="0 0 20 18" fill="none" xmlns="http://www.w3.org/2000/svg">
<path d="M2.5 2.5V0H4.16667V2.5H6.66667V4.16667H4.16667V6.66667H2.5V4.16667H0V2.5H2.5ZM5 7.5V5H7.5V2.5H13.3333L14.8583 4.16667H17.5C18.4167 4.16667 19.1667 4.91667 19.1667 5.83333V15.8333C19.1667 16.75 18.4167 17.5 17.5 17.5H4.16667C3.25 17.5 2.5 16.75 2.5 15.8333V7.5H5ZM10.8333 15C13.1333 15 15 13.1333 15 10.8333C15 8.53333 13.1333 6.66667 10.8333 6.66667C8.53333 6.66667 6.66667 8.53333 6.66667 10.8333C6.66667 13.1333 8.53333 15 10.8333 15ZM8.16667 10.8333C8.16667 12.3083 9.35833 13.5 10.8333 13.5C12.3083 13.5 13.5 12.3083 13.5 10.8333C13.5 9.35833 12.3083 8.16667 10.8333 8.16667C9.35833 8.16667 8.16667 9.35833 8.16667 10.8333Z"/>
</svg>
