<svg width="24" height="23" viewBox="0 0 24 23" fill="none" xmlns="http://www.w3.org/2000/svg">
    <path d="M6.23351 7.31468C8.25016 7.31468 9.89084 5.674 9.89084 3.65734C9.89084 1.64069 8.25016 0 6.23351 0C4.21686 0 2.57617 1.64069 2.57617 3.65734C2.57617 5.674 4.21686 7.31468 6.23351 7.31468Z" fill="#BFC3D1"/>
    <path d="M10.2509 9.08685L10.2447 9.08479L9.2009 8.76448C9.03632 8.7138 8.86038 8.80101 8.80116 8.96343L6.60619 14.9858C6.47954 15.3333 5.98815 15.3333 5.8616 14.9858L3.66664 8.96343C3.61887 8.83224 3.49503 8.75 3.36243 8.75C3.33098 8.75 3.29899 8.75465 3.26733 8.76437L2.22436 9.08436C0.890911 9.52863 0 10.7648 0 12.1626V18.5335L12.468 18.5334V12.1459C12.4679 10.7542 11.5734 9.52009 10.2509 9.08685Z" fill="#BFC3D1"/>
    <path d="M7.03712 8.69108C6.95217 8.59858 6.828 8.552 6.70243 8.552H5.76548C5.6399 8.552 5.51573 8.59858 5.43079 8.69108C5.29927 8.83438 5.28025 9.04133 5.37351 9.20311L5.8743 9.95818L5.63979 11.936L6.10146 13.1642C6.14653 13.2877 6.32116 13.2877 6.36623 13.1642L6.8279 11.936L6.59339 9.95818L7.09418 9.20311C7.18776 9.04133 7.16864 8.83438 7.03712 8.69108Z" fill="#BFC3D1"/>
    <path d="M15.1517 16.6935C14.8296 16.7267 14.5816 16.9977 14.579 17.3225L14.5714 17.9695C14.5663 18.2943 14.8066 18.5704 15.1287 18.6114L15.6042 18.6727C15.6835 18.9617 15.7959 19.2379 15.9417 19.4987L15.6349 19.8772C15.4304 20.1303 15.4457 20.4935 15.6732 20.7262L16.1257 21.189C16.3533 21.4217 16.7163 21.4473 16.9745 21.2478L17.3554 20.9538C17.6238 21.1123 17.9076 21.2376 18.2041 21.3246L18.2553 21.8155C18.2885 22.1377 18.5595 22.3858 18.8842 22.3883L19.531 22.396C19.8557 22.4011 20.1318 22.1608 20.1727 21.8386L20.2315 21.3731C20.5536 21.2938 20.8604 21.1737 21.1518 21.0151L21.5097 21.3041C21.7628 21.5087 22.1259 21.4933 22.3585 21.2657L22.8213 20.8131C23.0539 20.5856 23.0795 20.2224 22.8801 19.9641L22.6065 19.6087C22.7752 19.3274 22.9056 19.0282 22.9951 18.7136L23.4195 18.6702C23.7416 18.6369 23.9896 18.3659 23.9921 18.0411L23.9998 17.3941C24.0049 17.0694 23.7646 16.7932 23.4425 16.7523L23.0283 16.6986C22.9491 16.3866 22.8315 16.0848 22.6781 15.8035L22.9363 15.4864C23.1408 15.2333 23.1255 14.8702 22.898 14.6375L22.4455 14.1746C22.2179 13.9419 21.8549 13.9163 21.5967 14.1158L21.2873 14.3536C20.9959 14.1772 20.684 14.0416 20.3568 13.9496L20.3158 13.5481C20.2826 13.2259 20.0116 12.9778 19.6869 12.9753L19.0401 12.9676C18.7155 12.9625 18.4394 13.2029 18.3984 13.5251L18.3473 13.924C18.0099 14.0109 17.6852 14.1439 17.3835 14.3178L17.064 14.057C16.8109 13.8524 16.4478 13.8678 16.2152 14.0953L15.7499 14.5505C15.5173 14.7781 15.4917 15.1412 15.6911 15.3995L15.9646 15.7524C15.8061 16.0337 15.6809 16.3329 15.5991 16.6474L15.1517 16.6935ZM19.3265 15.9621C20.2545 15.9723 20.9984 16.7369 20.9882 17.6652C20.978 18.5935 20.2136 19.3376 19.2855 19.3274C18.3575 19.3171 17.6136 18.5525 17.6238 17.6243C17.6341 16.696 18.3985 15.9519 19.3265 15.9621Z" fill="#BFC3D1"/>
</svg>
