<svg width="56" height="53" viewBox="0 0 56 53" fill="none" xmlns="http://www.w3.org/2000/svg">
    <path d="M14.5457 17.8095C19.2513 17.8095 23.0795 13.9813 23.0795 9.27574C23.0795 4.57021 19.2513 0.741943 14.5457 0.741943C9.84023 0.741943 6.01196 4.57021 6.01196 9.27574C6.01196 13.9813 9.84023 17.8095 14.5457 17.8095Z" fill="#BFC3D1"/>
    <path d="M23.9187 21.9449L23.9044 21.9401L21.4688 21.1927C21.0847 21.0745 20.6742 21.278 20.536 21.6569L15.4144 35.7092C15.1189 36.5199 13.9724 36.5199 13.6771 35.7092L8.55549 21.6569C8.44403 21.3508 8.15506 21.1589 7.84566 21.1589C7.77228 21.1589 7.69764 21.1698 7.62376 21.1925L5.19018 21.9391C2.07879 22.9757 0 25.8602 0 29.1216V43.9871L29.092 43.9868V29.0828C29.0918 25.8355 27.0047 22.9558 23.9187 21.9449Z" fill="#BFC3D1"/>
    <path d="M16.4194 21.0208C16.2212 20.805 15.9314 20.6963 15.6384 20.6963H13.4522C13.1592 20.6963 12.8695 20.805 12.6713 21.0208C12.3644 21.3552 12.32 21.8381 12.5376 22.2155L13.7061 23.9774L13.1589 28.5924L14.2362 31.4581C14.3413 31.7464 14.7488 31.7464 14.854 31.4581L15.9312 28.5924L15.384 23.9774L16.5525 22.2155C16.7709 21.8381 16.7262 21.3552 16.4194 21.0208Z" fill="#BFC3D1"/>
    <path d="M35.3543 39.6938C34.6027 39.7714 34.024 40.4038 34.0181 41.1617L34.0002 42.6713C33.9883 43.429 34.549 44.0735 35.3006 44.169L36.4101 44.3121C36.595 44.9864 36.8575 45.6308 37.1975 46.2395L36.4817 47.1225C36.0045 47.7132 36.0403 48.5605 36.5712 49.1035L37.627 50.1835C38.1579 50.7265 39.005 50.7861 39.6075 50.3207L40.4962 49.6346C41.1226 50.0045 41.7848 50.2969 42.4767 50.4997L42.596 51.6454C42.6735 52.3972 43.3058 52.9759 44.0634 52.9819L45.5727 52.9998C46.3302 53.0117 46.9745 52.4509 47.0699 51.6991L47.2071 50.6131C47.9588 50.4281 48.6746 50.1477 49.3546 49.7778L50.1897 50.452C50.7803 50.9293 51.6274 50.8935 52.1702 50.3625L53.2499 49.3064C53.7928 48.7754 53.8524 47.9281 53.3872 47.3254L52.7488 46.496C53.1425 45.8396 53.4468 45.1415 53.6556 44.4076L54.6458 44.3062C55.3974 44.2286 55.976 43.5961 55.982 42.8383L55.9998 41.3287C56.0118 40.571 55.4511 39.9265 54.6995 39.831L53.733 39.7057C53.5481 38.9778 53.2738 38.2737 52.9159 37.6173L53.5184 36.8775C53.9956 36.2868 53.9598 35.4395 53.4289 34.8965L52.3731 33.8165C51.8422 33.2735 50.995 33.2138 50.3926 33.6793L49.6707 34.2342C48.9908 33.8225 48.263 33.5062 47.4995 33.2914L47.404 32.3546C47.3264 31.6028 46.6942 31.0241 45.9365 31.0181L44.4273 31.0002C43.6698 30.9883 43.0255 31.5491 42.93 32.3009L42.8107 33.2318C42.0234 33.4346 41.2658 33.745 40.5619 34.1506L39.8162 33.542C39.2257 33.0647 38.3786 33.1006 37.8357 33.6315L36.7501 34.6937C36.2072 35.2247 36.1476 36.072 36.6129 36.6746L37.2512 37.4981C36.8813 38.1544 36.589 38.8525 36.3981 39.5864L35.3543 39.6938ZM45.0954 37.9873C47.2608 38.0111 48.9966 39.7953 48.9728 41.9612C48.949 44.1272 47.1653 45.8634 44.9999 45.8396C42.8346 45.8158 41.0988 44.0317 41.1226 41.8657C41.1465 39.6998 42.9301 37.9635 45.0954 37.9873Z" fill="#BFC3D1"/>
</svg>
