<svg xmlns="http://www.w3.org/2000/svg" fill="none" viewBox="0 0 64 61">
    <path fill="#BFC3D1" d="M50.28 33.646a6.72 6.72 0 006.712-6.713 6.72 6.72 0 00-6.712-6.712 6.72 6.72 0 00-6.712 6.712 6.72 6.72 0 006.712 6.713zM62.783 53.138H1.217c-.671 0-1.217.546-1.217 1.218v4.704c0 .671.546 1.218 1.217 1.218h61.566c.671 0 1.217-.547 1.217-1.218v-4.704c0-.672-.546-1.218-1.217-1.218zM37.202 42.543v7.91h25.58c.196 0 .386.019.574.047v-7.987a5.908 5.908 0 00-4.07-5.615l-.01-.003-3.55-.588a.595.595 0 00-.734.365l-4.029 11.053c-.232.637-1.134.637-1.366 0l-4.029-11.053a.595.595 0 00-.733-.365l-3.55.587a5.946 5.946 0 00-4.083 5.65zM8.948 24.048h17.074l5.449 5.45a1.567 1.567 0 002.674-1.108v-4.35a6.244 6.244 0 005.908-6.227V6.236A6.243 6.243 0 0033.817 0H8.947a6.243 6.243 0 00-6.235 6.236v11.576a6.243 6.243 0 006.236 6.236zm1.45-8.337l5.65-5.65a1.79 1.79 0 012.531 0l2.427 2.426 2.73-2.73a1.79 1.79 0 01.626-3.465h3.693c.988 0 1.79.801 1.79 1.79v3.692a1.79 1.79 0 01-3.52.457l-4.053 4.054a1.79 1.79 0 01-2.532 0l-2.427-2.427-4.384 4.385c-.35.35-.808.524-1.266.524a1.79 1.79 0 01-1.266-3.056z"/>
    <path fill="#BFC3D1" d="M51.733 36.141a.819.819 0 00-.606-.252H49.43a.819.819 0 00-.606.252.787.787 0 00-.103.927l.906 1.367-.424 3.582.836 2.223a.255.255 0 00.48 0l.835-2.223-.424-3.582.907-1.367a.787.787 0 00-.104-.927z"/>
</svg>