<svg xmlns="http://www.w3.org/2000/svg" fill="none" viewBox="0 0 59 60">
    <path fill="#BFC3D1" d="M29.57 11.957c3.072 0 5.571-2.5 5.571-5.572S32.641.813 29.57.813a5.578 5.578 0 00-5.572 5.572c0 3.072 2.5 5.572 5.572 5.572zM20.785 29.048h17.567a2.072 2.072 0 002.071-2.071v-7.66c0-2.12-1.362-4-3.377-4.66l-.01-.004-2.946-.487a.494.494 0 00-.61.303l-3.343 9.175a.604.604 0 01-1.135 0l-3.344-9.175a.494.494 0 00-.463-.325c-.048 0-3.093.51-3.093.51a4.936 4.936 0 00-3.388 4.689v7.634c0 1.144.927 2.071 2.071 2.071zM54.975 43.184l-.033-.01-1.594-.49c-.48-.147-1.001-.03-1.373.305l-3.438 3.109-3.438-3.109a1.423 1.423 0 00-1.372-.305l-1.595.49-.033.01a5.88 5.88 0 00-4.025 5.585v8.835c0 .787.638 1.424 1.424 1.424h18.079c.786 0 1.423-.637 1.423-1.424V48.77a5.88 5.88 0 00-4.025-5.585zM48.537 41.702a5.95 5.95 0 005.944-5.943 5.95 5.95 0 00-5.944-5.943 5.95 5.95 0 00-5.943 5.943 5.95 5.95 0 005.943 5.943zM16.9 43.184l-.032-.01-1.595-.49c-.48-.147-1-.03-1.372.305l-3.438 3.109-3.439-3.109a1.422 1.422 0 00-1.372-.305l-1.627.5A5.88 5.88 0 000 48.769v8.835c0 .787.637 1.424 1.423 1.424h18.08c.785 0 1.423-.637 1.423-1.424V48.77a5.88 5.88 0 00-4.025-5.585zM4.52 35.759a5.95 5.95 0 005.943 5.943 5.95 5.95 0 005.943-5.943 5.95 5.95 0 00-5.943-5.943 5.95 5.95 0 00-5.943 5.943zM50.161 20.086a1.525 1.525 0 00-1.584 2.466l2.085 2.373a1.526 1.526 0 002.292 0l2.085-2.372a1.525 1.525 0 00-1.802-2.384c-.31-3.332-1.608-6.458-3.759-8.905a1.525 1.525 0 10-2.291 2.013c1.645 1.872 2.667 4.252 2.974 6.81zM6.184 24.925a1.526 1.526 0 002.29 0l2.086-2.372a1.525 1.525 0 00-1.584-2.466c.307-2.557 1.33-4.937 2.974-6.81a1.525 1.525 0 00-2.291-2.013c-2.151 2.447-3.449 5.573-3.76 8.905a1.525 1.525 0 00-1.8 2.384l2.085 2.372z"/>
    <path fill="#BFC3D1" d="M30.716 14.253a.685.685 0 00-.507-.21h-1.418c-.19 0-.378.07-.507.21a.658.658 0 00-.087.775l.759 1.144-.355 2.994.698 1.86a.213.213 0 00.401 0l.699-1.86-.355-2.994.758-1.144a.658.658 0 00-.086-.775z"/>
</svg>