<svg xmlns="http://www.w3.org/2000/svg" viewBox="0 0 31 50">
  <path fill="#BFC3D1" d="M24.716 26.29l-.015-.005-2.517-.772a.782.782 0 00-.963.48l-5.293 14.52c-.305.838-1.49.838-1.795 0l-5.292-14.52a.781.781 0 00-.963-.48l-2.515.771A7.813 7.813 0 000 33.706v15.361h30.062V33.666a7.762 7.762 0 00-5.346-7.376z"/>
  <path fill="#BFC3D1" d="M16.967 25.335A1.09 1.09 0 0016.16 25H13.9a1.09 1.09 0 00-.806.335 1.048 1.048 0 00-.138 1.235l1.207 1.82-.566 4.77 1.114 2.96a.34.34 0 00.638 0l1.113-2.96-.565-4.77 1.207-1.82c.226-.39.18-.89-.137-1.235zM15 21c4.411 0 8-3.589 8-8s-3.589-8-8-8-8 3.589-8 8 3.589 8 8 8z"/>
  <path fill="#BFC3D1" d="M27 12.203c0-1.492-1.033-2.793-2.506-3.155a.374.374 0 00.014-.092C24.29 3.95 20.098 0 14.998 0 9.9 0 5.708 3.949 5.49 8.956a.375.375 0 00.015.092C3.96 9.43 2.91 10.838 3.006 12.4c.096 1.562 1.309 2.836 2.888 3.033.138.016.276.024.414.024h.828V8.95H6.32c.238-4.54 4.053-8.101 8.679-8.101 4.625 0 8.44 3.56 8.679 8.101h-.816v6.508h.827v1.22c0 3.247-2.668 5.696-6.207 5.696a.383.383 0 00-.072.014 1.244 1.244 0 00-1.378-.811c-.6.097-1.039.606-1.039 1.203 0 .598.44 1.107 1.04 1.205.599.097 1.182-.247 1.377-.812a.392.392 0 00.072.014c4.01 0 7.035-2.797 7.035-6.508v-1.22a.38.38 0 00-.022-.107c1.476-.353 2.512-1.655 2.505-3.148z"/>
</svg>