<svg width="100" height="100" viewBox="0 0 100 100" fill="none" xmlns="http://www.w3.org/2000/svg">
<path opacity="0.89" d="M49.9999 8.33331C26.9999 8.33331 8.33325 27 8.33325 50C8.33325 73 26.9999 91.6667 49.9999 91.6667C72.9999 91.6667 91.6666 73 91.6666 50C91.6666 27 72.9999 8.33331 49.9999 8.33331ZM49.9999 20.8333C56.9166 20.8333 62.4999 26.4166 62.4999 33.3333C62.4999 40.25 56.9166 45.8333 49.9999 45.8333C43.0833 45.8333 37.4999 40.25 37.4999 33.3333C37.4999 26.4166 43.0833 20.8333 49.9999 20.8333ZM49.9999 80C39.5833 80 30.3749 74.6666 24.9999 66.5833C25.1249 58.2916 41.6666 53.75 49.9999 53.75C58.2916 53.75 74.8749 58.2916 74.9999 66.5833C69.6249 74.6666 60.4166 80 49.9999 80Z" fill="#BFC3D1"/>
</svg>
