<svg width="27" height="26" viewBox="0 0 27 26" fill="none" xmlns="http://www.w3.org/2000/svg">
<path d="M21.2126 14.1942C22.774 14.1942 24.0443 12.9238 24.0443 11.3625C24.0443 9.80108 22.7739 8.53076 21.2126 8.53076C19.6512 8.53076 18.3809 9.80108 18.3809 11.3625C18.3809 12.9238 19.6511 14.1942 21.2126 14.1942Z" fill="#BFC3D1"/>
<path d="M26.4864 22.4177H0.513566C0.23035 22.4177 0 22.6481 0 22.9313V24.916C0 25.1992 0.23035 25.4295 0.513566 25.4295H26.4864C26.7696 25.4295 27 25.1992 27 24.916V22.9313C27 22.6481 26.7696 22.4177 26.4864 22.4177Z" fill="#BFC3D1"/>
<path d="M15.6943 17.948V21.2849H26.4862C26.5685 21.2849 26.6488 21.2929 26.7279 21.3046V17.9351C26.7279 16.8576 26.0354 15.902 25.0114 15.5666L25.0067 15.5651L23.5089 15.317C23.3815 15.2779 23.2453 15.3453 23.1994 15.4711L21.4999 20.134C21.4018 20.403 21.0215 20.403 20.9234 20.134L19.2239 15.4711C19.1869 15.3695 19.091 15.3059 18.9883 15.3059C18.964 15.3059 18.9392 15.3095 18.9147 15.317L17.4166 15.5648C16.3842 15.9087 15.6943 16.8658 15.6943 17.948Z" fill="#BFC3D1"/>
<path d="M3.77524 10.1454H10.9785L13.2773 12.4443C13.4038 12.5707 13.5727 12.6378 13.7448 12.6378C13.8298 12.6378 13.9157 12.6214 13.9975 12.5875C14.2444 12.4852 14.4054 12.2442 14.4054 11.977V10.1419C15.7918 10.0696 16.8976 8.91887 16.8976 7.51478V2.63071C16.8976 1.18016 15.7175 0 14.2669 0H3.77524C2.3247 0 1.14453 1.18016 1.14453 2.63071V7.51459C1.14453 8.96523 2.3247 10.1454 3.77524 10.1454ZM4.3867 6.62812L6.77044 4.24438C7.06546 3.94955 7.54353 3.94955 7.83855 4.24438L8.86219 5.26812L10.0139 4.11637C9.72742 4.00912 9.52303 3.73355 9.52303 3.40965C9.52303 2.99256 9.86119 2.6544 10.2783 2.6544H11.836C12.253 2.6544 12.5912 2.99256 12.5912 3.40965V4.96734C12.5912 5.38442 12.253 5.72258 11.836 5.72258C11.4856 5.72258 11.1918 5.48364 11.1065 5.16012L9.39624 6.87018C9.10122 7.16501 8.62315 7.16501 8.32814 6.87018L7.3045 5.84654L5.45481 7.69623C5.30725 7.84369 5.1141 7.91742 4.92075 7.91742C4.72741 7.91742 4.53416 7.84369 4.3867 7.69623C4.09178 7.40121 4.09178 6.92314 4.3867 6.62812Z" fill="#BFC3D1"/>
<path d="M21.8249 15.2469C21.76 15.1762 21.6651 15.1406 21.5692 15.1406H20.8535C20.7576 15.1406 20.6627 15.1762 20.5979 15.2469C20.4974 15.3563 20.4829 15.5145 20.5542 15.638L20.9367 16.2148L20.7576 17.7256L21.1103 18.6638C21.1447 18.7582 21.2782 18.7582 21.3125 18.6638L21.6652 17.7256L21.4861 16.2148L21.8687 15.638C21.9399 15.5145 21.9253 15.3564 21.8249 15.2469Z" fill="#BFC3D1"/>
</svg>
