<svg width="160" height="66" viewBox="0 0 160 66" fill="none" xmlns="http://www.w3.org/2000/svg">
<path d="M6.36328 30.2402H18.4922V33H2.9707V7.40625H6.36328V30.2402ZM25.9305 20.2559L32.6102 7.40625H36.4423L27.618 23.4551V33H24.243V23.4551L15.4188 7.40625H19.286L25.9305 20.2559ZM59.4197 33H56.0271L43.1423 13.2773V33H39.7497V7.40625H43.1423L56.0622 27.2168V7.40625H59.4197V33ZM71.9205 21.0996L68.7916 24.3516V33H65.4166V7.40625H68.7916V20.0625L80.1646 7.40625H84.2428L74.1705 18.709L85.0338 33H80.9908L71.9205 21.0996Z" fill="#00A9CC"/>
<path d="M102.123 26.3203H91.3999L88.9917 33H85.5112L95.2846 7.40625H98.2378L108.029 33H104.566L102.123 26.3203ZM92.4194 23.543H101.121L96.7612 11.5723L92.4194 23.543ZM130.162 29.6426C129.295 30.8848 128.082 31.8164 126.524 32.4375C124.977 33.0469 123.172 33.3516 121.11 33.3516C119.024 33.3516 117.172 32.8652 115.555 31.8926C113.938 30.9082 112.684 29.5137 111.793 27.709C110.914 25.9043 110.463 23.8125 110.44 21.4336V19.2012C110.44 15.3457 111.336 12.3574 113.129 10.2363C114.934 8.11523 117.465 7.05469 120.723 7.05469C123.395 7.05469 125.545 7.74023 127.174 9.11133C128.803 10.4707 129.799 12.4043 130.162 14.9121H126.787C126.155 11.5254 124.139 9.83203 120.741 9.83203C118.479 9.83203 116.762 10.6289 115.59 12.2227C114.43 13.8047 113.844 16.1016 113.832 19.1133V21.2051C113.832 24.0762 114.489 26.3613 115.801 28.0605C117.114 29.748 118.889 30.5918 121.127 30.5918C122.393 30.5918 123.5 30.4512 124.45 30.1699C125.399 29.8887 126.184 29.4141 126.805 28.7461V22.998H120.881V20.2559H130.162V29.6426ZM150.275 21.1699H139.183V30.2402H152.068V33H135.808V7.40625H151.892V10.1836H139.183V18.4102H150.275V21.1699Z" fill="white"/>
<path d="M4.03223 48.8486L4.07715 50.9263C4.53385 50.1776 5.10286 49.6086 5.78418 49.2192C6.46549 48.8224 7.21794 48.624 8.0415 48.624C9.34424 48.624 10.3138 48.9909 10.9502 49.7246C11.5866 50.4583 11.9085 51.5589 11.916 53.0264V61H10.5796V53.0151C10.5721 51.9295 10.34 51.1209 9.8833 50.5894C9.43408 50.0578 8.71159 49.792 7.71582 49.792C6.88477 49.792 6.1473 50.054 5.50342 50.5781C4.86702 51.0947 4.39535 51.7948 4.08838 52.6782V61H2.75195V48.8486H4.03223ZM30.0707 61C29.9359 60.6182 29.8498 60.0529 29.8124 59.3042C29.3407 59.9181 28.738 60.3936 28.0043 60.7305C27.278 61.0599 26.5069 61.2246 25.6908 61.2246C24.5228 61.2246 23.5757 60.8989 22.8495 60.2476C22.1307 59.5962 21.7714 58.7726 21.7714 57.7769C21.7714 56.5939 22.2618 55.658 23.2425 54.9692C24.2308 54.2804 25.6047 53.936 27.3641 53.936H29.8011V52.5547C29.8011 51.6862 29.5316 51.0049 28.9925 50.5107C28.461 50.0091 27.6823 49.7583 26.6566 49.7583C25.7207 49.7583 24.9458 49.9979 24.3319 50.4771C23.718 50.9562 23.411 51.5327 23.411 52.2065L22.0633 52.1953C22.0633 51.2295 22.5126 50.3947 23.411 49.6909C24.3094 48.9797 25.4138 48.624 26.724 48.624C28.0791 48.624 29.146 48.9647 29.9247 49.646C30.7108 50.3198 31.1151 51.2632 31.1376 52.4761V58.2261C31.1376 59.4015 31.2611 60.2812 31.5082 60.8652V61H30.0707ZM25.848 60.0342C26.7465 60.0342 27.5476 59.8171 28.2513 59.3828C28.9626 58.9486 29.4792 58.3683 29.8011 57.6421V54.9692H27.3978C26.0577 54.9842 25.0095 55.2313 24.2533 55.7104C23.4971 56.1821 23.119 56.8335 23.119 57.6646C23.119 58.3459 23.3698 58.9111 23.8715 59.3604C24.3806 59.8096 25.0394 60.0342 25.848 60.0342ZM45.3391 59.147L49.0339 48.8486H50.4153L45.8782 61H44.7888L40.2292 48.8486H41.6106L45.3391 59.147ZM61.1354 61H59.7877V48.8486H61.1354V61ZM59.5519 45.3335C59.5519 45.0789 59.6342 44.8656 59.7989 44.6934C59.9636 44.5137 60.1883 44.4238 60.4728 44.4238C60.7573 44.4238 60.9819 44.5137 61.1466 44.6934C61.3188 44.8656 61.4049 45.0789 61.4049 45.3335C61.4049 45.5881 61.3188 45.8014 61.1466 45.9736C60.9819 46.1458 60.7573 46.2319 60.4728 46.2319C60.1883 46.2319 59.9636 46.1458 59.7989 45.9736C59.6342 45.8014 59.5519 45.5881 59.5519 45.3335ZM71.2602 54.812C71.2602 52.9103 71.6795 51.4054 72.518 50.2974C73.3641 49.1818 74.5096 48.624 75.9546 48.624C77.6092 48.624 78.867 49.2829 79.728 50.6006L79.7954 48.8486H81.0532V60.7529C81.0532 62.3177 80.6152 63.5568 79.7392 64.4702C78.8633 65.3836 77.6766 65.8403 76.1792 65.8403C75.3331 65.8403 74.5245 65.6494 73.7534 65.2676C72.9897 64.8932 72.387 64.3916 71.9453 63.7627L72.6977 62.9541C73.6486 64.1221 74.7791 64.7061 76.0893 64.7061C77.2124 64.7061 78.0883 64.3729 78.7173 63.7065C79.3462 63.0477 79.6718 62.1305 79.6943 60.9551V59.4277C78.8333 60.6257 77.5792 61.2246 75.9321 61.2246C74.5245 61.2246 73.394 60.6631 72.5405 59.54C71.687 58.417 71.2602 56.9009 71.2602 54.9917V54.812ZM72.6191 55.0479C72.6191 56.5977 72.9298 57.8218 73.5512 58.7202C74.1727 59.6112 75.0486 60.0566 76.1792 60.0566C77.8338 60.0566 79.0055 59.3154 79.6943 57.833V52.1841C79.3799 51.4054 78.9269 50.814 78.3354 50.4097C77.7439 49.9979 77.0327 49.792 76.2016 49.792C75.0711 49.792 74.1914 50.2375 73.5625 51.1284C72.9336 52.0119 72.6191 53.3184 72.6191 55.0479ZM99.2303 61C99.0955 60.6182 99.0094 60.0529 98.972 59.3042C98.5003 59.9181 97.8976 60.3936 97.1639 60.7305C96.4377 61.0599 95.6665 61.2246 94.8504 61.2246C93.6825 61.2246 92.7354 60.8989 92.0091 60.2476C91.2904 59.5962 90.931 58.7726 90.931 57.7769C90.931 56.5939 91.4214 55.658 92.4022 54.9692C93.3905 54.2804 94.7643 53.936 96.5238 53.936H98.9608V52.5547C98.9608 51.6862 98.6912 51.0049 98.1522 50.5107C97.6206 50.0091 96.842 49.7583 95.8162 49.7583C94.8804 49.7583 94.1055 49.9979 93.4915 50.4771C92.8776 50.9562 92.5706 51.5327 92.5706 52.2065L91.223 52.1953C91.223 51.2295 91.6722 50.3947 92.5706 49.6909C93.4691 48.9797 94.5734 48.624 95.8836 48.624C97.2388 48.624 98.3057 48.9647 99.0843 49.646C99.8704 50.3198 100.275 51.2632 100.297 52.4761V58.2261C100.297 59.4015 100.421 60.2812 100.668 60.8652V61H99.2303ZM95.0077 60.0342C95.9061 60.0342 96.7072 59.8171 97.411 59.3828C98.1222 58.9486 98.6388 58.3683 98.9608 57.6421V54.9692H96.5575C95.2173 54.9842 94.1691 55.2313 93.4129 55.7104C92.6567 56.1821 92.2786 56.8335 92.2786 57.6646C92.2786 58.3459 92.5295 58.9111 93.0311 59.3604C93.5402 59.8096 94.1991 60.0342 95.0077 60.0342ZM112.983 45.7378V48.8486H115.498V49.9492H112.983V58.0464C112.983 58.7202 113.102 59.2218 113.342 59.5513C113.589 59.8807 113.997 60.0454 114.566 60.0454C114.791 60.0454 115.154 60.008 115.655 59.9331L115.712 61.0337C115.36 61.161 114.881 61.2246 114.274 61.2246C113.353 61.2246 112.683 60.9588 112.264 60.4272C111.845 59.8882 111.635 59.0983 111.635 58.0576V49.9492H109.4V48.8486H111.635V45.7378H112.983ZM124.32 54.7446C124.32 53.5767 124.545 52.5247 124.994 51.5889C125.451 50.653 126.091 49.9268 126.915 49.4102C127.746 48.8861 128.685 48.624 129.733 48.624C131.351 48.624 132.661 49.193 133.664 50.3311C134.667 51.4616 135.169 52.9627 135.169 54.8345V55.1152C135.169 56.2907 134.941 57.3501 134.484 58.2935C134.035 59.2293 133.398 59.9518 132.575 60.4609C131.751 60.9701 130.812 61.2246 129.756 61.2246C128.146 61.2246 126.836 60.6593 125.825 59.5288C124.822 58.3908 124.32 56.8859 124.32 55.0142V54.7446ZM125.668 55.1152C125.668 56.5677 126.042 57.7619 126.791 58.6978C127.547 59.6261 128.536 60.0903 129.756 60.0903C130.969 60.0903 131.95 59.6261 132.698 58.6978C133.454 57.7619 133.833 56.5303 133.833 55.0029V54.7446C133.833 53.8162 133.66 52.9665 133.316 52.1953C132.972 51.4242 132.489 50.8289 131.867 50.4097C131.246 49.9829 130.535 49.7695 129.733 49.7695C128.536 49.7695 127.558 50.2412 126.802 51.1846C126.046 52.1204 125.668 53.3483 125.668 54.8682V55.1152ZM150.572 49.9941C150.288 49.9417 149.984 49.9155 149.663 49.9155C148.824 49.9155 148.113 50.1514 147.529 50.623C146.952 51.0872 146.54 51.7648 146.293 52.6558V61H144.957V48.8486H146.271L146.293 50.7803C147.005 49.3428 148.146 48.624 149.719 48.624C150.093 48.624 150.389 48.6727 150.606 48.77L150.572 49.9941Z" fill="white"/>
</svg>
