<svg width="13" height="18" viewBox="0 0 13 18" fill="none" xmlns="http://www.w3.org/2000/svg">
<path d="M6.50106 18C7.44368 18 8.21491 17.1692 8.21491 16.1538H4.7872C4.7872 17.1692 5.54987 18 6.50106 18ZM11.6426 12.4615V7.84615C11.6426 5.01231 10.2373 2.64 7.78645 2.01231V1.38462C7.78645 0.618462 7.21231 0 6.50106 0C5.78981 0 5.21567 0.618462 5.21567 1.38462V2.01231C2.75629 2.64 1.35949 5.00308 1.35949 7.84615V12.4615L0.254059 13.6523C-0.285805 14.2338 0.0912431 15.2308 0.853908 15.2308H12.1396C12.9023 15.2308 13.2879 14.2338 12.7481 13.6523L11.6426 12.4615Z" fill="#909090"/>
</svg>
