<svg width="12" height="16" viewBox="0 0 12 16" xmlns="http://www.w3.org/2000/svg">
  <path d="M7.26544 12.6787H4.29663C4.1993 12.6787 4.1203 12.7577 4.1203 12.855V15.8238C4.1203 15.9212 4.1993 16.0002 4.29663 16.0002H7.26562C7.36294 16.0002 7.44194 15.9212 7.44194 15.8238V12.855C7.44177 12.7575 7.36294 12.6787 7.26544 12.6787Z" />
  <path d="M9.8972 1.38082C8.86146 0.464613 7.4535 0 5.7126 0C4.05586 0 2.69601 0.459168 1.67085 1.36494C0.642507 2.27337 0.0803966 3.39479 0.000329647 4.69819C-0.00531739 4.79111 0.0622165 4.87259 0.154615 4.88403L2.88044 5.22204C2.88784 5.22291 2.89507 5.22346 2.9023 5.22346C2.9843 5.22346 3.05676 5.16632 3.07457 5.08433C3.25547 4.24678 3.5877 3.61834 4.06217 3.21648C4.53418 2.81658 5.13211 2.6138 5.83937 2.6138C6.57288 2.6138 7.16075 2.80669 7.58675 3.18703C8.01273 3.56755 8.21994 4.01012 8.21994 4.53999C8.21994 4.91961 8.10375 5.25817 7.86464 5.57484C7.75588 5.71518 7.40196 6.06573 6.34101 6.92831C5.45955 7.64491 4.86128 8.30383 4.56256 8.8864C4.26229 9.47234 4.10993 10.2245 4.10993 11.1222C4.10993 11.2078 4.11345 11.4403 4.12051 11.8333C4.12227 11.9295 4.20075 12.0065 4.29683 12.0065H6.99111C7.03839 12.0065 7.08368 11.9875 7.11681 11.9538C7.14997 11.9201 7.16812 11.8745 7.16743 11.8272C7.15386 11.0415 7.21751 10.4957 7.35629 10.2052C7.49594 9.91283 7.87311 9.50991 8.47737 9.00738C9.71462 7.97869 10.5023 7.18416 10.8856 6.57831C11.2718 5.96771 11.4677 5.31035 11.4677 4.62461C11.4675 3.39393 10.9391 2.30264 9.8972 1.38082Z" />
</svg>
